<svg class="h-10 inline-block md:hidden" id="Layer_1" data-name="Layer 1" xmlns="http://www.w3.org/2000/svg" viewBox="66.75 173 378.49 165.99"><defs><style>.cls-1{fill:#3f3f5c;}.cls-2{fill:#f5da5f;}.cls-3{fill:#db78b0;}</style></defs><rect class="cls-1" x="66.75" y="173" width="378.49" height="165.99" rx="83"></rect><path class="cls-2" d="M168.52,312.81a5.13,5.13,0,0,1-3.63-1.5l-56.6-56.6,54-54a5.14,5.14,0,1,1,7.27,7.27l-46.75,46.75L172.15,304a5.14,5.14,0,0,1-3.63,8.77Z"></path><path class="cls-2" d="M343.48,312.81a5.14,5.14,0,0,1-3.63-8.77l49.33-49.33L342.43,208a5.14,5.14,0,1,1,7.27-7.27l54,54-56.6,56.6A5.13,5.13,0,0,1,343.48,312.81Z"></path><path class="cls-2" d="M292.46,312.81a5.52,5.52,0,0,1-1.14-.12,5.14,5.14,0,0,1-3.88-6.14L310.69,203.2a5.14,5.14,0,1,1,10,2.25L297.46,308.8A5.12,5.12,0,0,1,292.46,312.81Z"></path><path class="cls-3" d="M194.41,220.06v71.88a7.62,7.62,0,0,0,11.7,6.43l57.07-36.27a7.62,7.62,0,0,0-.06-12.89L206.06,213.6A7.62,7.62,0,0,0,194.41,220.06Z"></path></svg>